<svg id="cart" xmlns="http://www.w3.org/2000/svg" width="44.453" height="44.453" viewBox="0 0 44.453 44.453">
  <path id="Path_4023" data-name="Path 4023" d="M0,0H44.453V44.453H0Z" fill="none"/>
  <path id="Path_4024" data-name="Path 4024" d="M27.085,19.835,33.236,6H6.16l5.281,13.835Z" transform="translate(4.078 3.196)" fill="#fff" opacity="0.3"/>
  <path id="Path_4025" data-name="Path 4025" d="M29.445,23.507a3.891,3.891,0,0,0,3.421-2.014l7-12.689a1.948,1.948,0,0,0-1.7-2.894H9.23L7.393,2H1V5.91H4.91l7.038,14.84L9.309,25.521a3.917,3.917,0,0,0,3.421,5.807H36.19v-3.91H12.73l2.15-3.91ZM11.088,9.821H34.841l-5.4,9.776H15.721ZM12.73,33.283a3.91,3.91,0,1,0,3.91,3.91A3.9,3.9,0,0,0,12.73,33.283Zm19.55,0a3.91,3.91,0,1,0,3.91,3.91A3.9,3.9,0,0,0,32.28,33.283Z" transform="translate(0.337 0.675)" fill="#fff"/>
</svg>
