<svg id="twotone-3d_rotation-24px" xmlns="http://www.w3.org/2000/svg" width="40" height="40" viewBox="0 0 40 40">
  <path id="Path_3733" data-name="Path 3733" d="M0,0H40V40H0Z" fill="none"/>
  <path id="Path_3734" data-name="Path 3734" d="M29,5a7.789,7.789,0,0,0-7.12,5.126H18.14A7.836,7.836,0,0,0,11,5C7,5,4,8.258,4,12.6c0,6.278,6.28,12.468,15.8,21.83l.2.217.2-.217C29.72,25.071,36,18.88,36,12.6,36,8.258,33,5,29,5Z" transform="translate(0 0)" fill="#fff" opacity="0.3"/>
  <path id="Path_3735" data-name="Path 3735" d="M28.1,3A10.615,10.615,0,0,0,20,6.912,10.615,10.615,0,0,0,11.9,3,10.005,10.005,0,0,0,2,13.3c0,7.076,6.12,12.841,15.39,21.6L20,37.35l2.61-2.471C31.88,26.137,38,20.372,38,13.3A10.005,10.005,0,0,0,28.1,3ZM20.18,32.109,20,32.3l-.18-.187C11.252,24.041,5.6,18.706,5.6,13.3a6.278,6.278,0,0,1,6.3-6.552,7.038,7.038,0,0,1,6.426,4.418h3.366A6.994,6.994,0,0,1,28.1,6.744,6.278,6.278,0,0,1,34.4,13.3C34.4,18.706,28.748,24.041,20.18,32.109Z" transform="translate(0 0)" fill="#fff"/>
</svg>
