<svg id="message" xmlns="http://www.w3.org/2000/svg" width="27.099" height="27.099" viewBox="0 0 27.099 27.099">
  <path id="Path_3925" data-name="Path 3925" d="M0,0H27.1V27.1H0Z" fill="none"/>
  <path id="Path_3926" data-name="Path 3926" d="M16.42,11.9V4H4v9.225l.666-.655.655-.666h11.1Z" transform="translate(0.517 0.517)" opacity="0.3"/>
  <path id="Path_3927" data-name="Path 3927" d="M23.453,6.517H21.2V16.679H6.517v2.258a1.132,1.132,0,0,0,1.129,1.129h12.42l4.517,4.517V7.646A1.132,1.132,0,0,0,23.453,6.517Zm-5.646,7.9a1.132,1.132,0,0,0,1.129-1.129V3.129A1.132,1.132,0,0,0,17.808,2H3.129A1.132,1.132,0,0,0,2,3.129V18.937L6.517,14.42ZM4.924,12.828l-.666.655V4.258h12.42v7.9H5.579Z" transform="translate(0.258 0.258)"/>
</svg>
