<svg id="user" xmlns="http://www.w3.org/2000/svg" width="62.253" height="62.253" viewBox="0 0 62.253 62.253">
  <path id="Path_3889" data-name="Path 3889" d="M0,0H62.253V62.253H0Z" fill="none"/>
  <circle id="Ellipse_154" data-name="Ellipse 154" cx="5" cy="5" r="5" transform="translate(25.742 15.58)" opacity="0.3"/>
  <path id="Path_3890" data-name="Path 3890" d="M21.563,15C14.56,15,6.519,18.346,6,20.214v2.568H37.126V20.188C36.608,18.346,28.567,15,21.563,15Z" transform="translate(9.563 23.908)" opacity="0.3"/>
  <path id="Path_3891" data-name="Path 3891" d="M24.751,24.751A10.375,10.375,0,1,0,14.375,14.375,10.373,10.373,0,0,0,24.751,24.751Zm0-15.563a5.188,5.188,0,1,1-5.188,5.188A5.2,5.2,0,0,1,24.751,9.188Zm0,18.157C17.825,27.345,4,30.821,4,37.72V45.5H45.5V37.72C45.5,30.821,31.677,27.345,24.751,27.345ZM40.314,40.314H9.188V37.746c.519-1.868,8.56-5.214,15.563-5.214S39.8,35.879,40.314,37.72Z" transform="translate(6.375 6.375)"/>
</svg>
