<svg xmlns="http://www.w3.org/2000/svg" width="631.585" height="464.5" viewBox="0 0 631.585 464.5">
  <g id="Group_192" data-name="Group 192" transform="translate(-160.4 -394)">
    <g id="Group_191" data-name="Group 191" transform="translate(-476.497 -1445.29)">
      <path id="Path_12764" data-name="Path 12764" d="M1232.157,2448.2s-30.342.081-76.62.242c-135.5.4-407.717,1.128-455.2.766-63.718-.484-107.8-269.816,11.347-251.521,129.41,19.824,34.758-101.464,110.982-121.57,82.96-21.921,99.685,62.377,159.259,27.925,81.43-47.106,125.66-30.706,154,3.667,31.082,37.717,43,97.071,63.866,117.823q.7.726,1.406,1.33c40.555,36.266,58.908,71.363,64.9,102.511C1279.471,2398.478,1232.157,2448.2,1232.157,2448.2Z" transform="translate(0 -146.878)" fill="#ebf3fa"/>
      <g id="Group_171" data-name="Group 171" transform="translate(858.577 1839.29)">
        <path id="Path_12765" data-name="Path 12765" d="M1439.882,2182.146a.918.918,0,0,1-.708-.333l-1.145-1.385a.918.918,0,0,1,1.416-1.168l1.143,1.384a.918.918,0,0,1-.706,1.5Zm-2.7-3.275a.916.916,0,0,1-.71-.335q-.768-.936-1.552-1.9a.918.918,0,0,1,1.422-1.16q.783.96,1.549,1.894a.917.917,0,0,1-.709,1.5Zm-3.094-3.8a.916.916,0,0,1-.714-.34q-.764-.944-1.538-1.911a.918.918,0,0,1,1.432-1.147q.772.964,1.533,1.9a.917.917,0,0,1-.713,1.495Zm-3.062-3.822a.917.917,0,0,1-.72-.348q-.755-.953-1.518-1.927a.918.918,0,0,1,1.444-1.133q.76.97,1.513,1.92a.917.917,0,0,1-.719,1.487Zm-3.019-3.855a.917.917,0,0,1-.727-.356q-.746-.963-1.5-1.946a.918.918,0,1,1,1.459-1.114q.746.978,1.488,1.937a.918.918,0,0,1-.725,1.479Zm-2.97-3.892a.917.917,0,0,1-.734-.367q-.734-.976-1.468-1.968a.918.918,0,0,1,1.475-1.092q.731.987,1.46,1.957a.918.918,0,0,1-.733,1.47Zm-2.913-3.936a.918.918,0,0,1-.743-.377q-.719-.989-1.437-1.992a.918.918,0,1,1,1.493-1.067q.713,1,1.428,1.979a.918.918,0,0,1-.742,1.458Zm-2.848-3.983a.917.917,0,0,1-.752-.391q-.7-1-1.4-2.017a.918.918,0,0,1,1.512-1.041q.694,1.009,1.392,2a.918.918,0,0,1-.751,1.445Zm-2.775-4.033a.918.918,0,0,1-.762-.4q-.684-1.016-1.363-2.045a.918.918,0,0,1,1.532-1.01q.674,1.022,1.353,2.029a.918.918,0,0,1-.76,1.431Zm-2.7-4.088a.916.916,0,0,1-.772-.42q-.664-1.031-1.32-2.073a.918.918,0,1,1,1.554-.977q.651,1.034,1.31,2.056a.917.917,0,0,1-.771,1.415Zm-2.607-4.145a.917.917,0,0,1-.783-.437q-.642-1.046-1.274-2.1a.918.918,0,0,1,1.576-.941q.626,1.048,1.262,2.084a.918.918,0,0,1-.781,1.4Zm-2.51-4.2a.917.917,0,0,1-.795-.457q-.617-1.062-1.221-2.135a.918.918,0,0,1,1.6-.9q.6,1.063,1.21,2.115a.918.918,0,0,1-.333,1.254A.908.908,0,0,1,1408.688,2139.117Zm-2.4-4.265a.918.918,0,0,1-.807-.478q-.591-1.082-1.168-2.173a.918.918,0,0,1,1.623-.858q.571,1.083,1.156,2.152a.918.918,0,0,1-.8,1.357Zm-2.293-4.34a.918.918,0,0,1-.818-.5q-.56-1.1-1.1-2.206a.918.918,0,1,1,1.647-.81q.539,1.1,1.092,2.181a.918.918,0,0,1-.817,1.335Zm-2.163-4.4a.917.917,0,0,1-.83-.526q-.526-1.115-1.035-2.238a.918.918,0,1,1,1.672-.757q.5,1.11,1.023,2.211a.918.918,0,0,1-.83,1.309Zm-2.021-4.465a.918.918,0,0,1-.843-.554q-.489-1.131-.96-2.271a.918.918,0,1,1,1.7-.7q.464,1.124.948,2.241a.918.918,0,0,1-.842,1.283Zm-1.867-4.529a.919.919,0,0,1-.855-.583q-.449-1.148-.877-2.3a.918.918,0,1,1,1.721-.637q.422,1.14.865,2.272a.919.919,0,0,1-.854,1.253Zm-1.7-4.591a.918.918,0,0,1-.866-.616q-.406-1.165-.788-2.337a.918.918,0,0,1,1.745-.569q.376,1.155.776,2.3a.917.917,0,0,1-.565,1.168A.907.907,0,0,1,1396.242,2112.525Zm-1.517-4.653a.919.919,0,0,1-.878-.651c-.238-.785-.471-1.582-.691-2.368a.918.918,0,1,1,1.767-.5c.217.774.446,1.558.68,2.33a.917.917,0,0,1-.612,1.145A.9.9,0,0,1,1394.724,2107.872Zm-1.32-4.713a.919.919,0,0,1-.888-.689c-.205-.8-.4-1.607-.586-2.4a.918.918,0,1,1,1.788-.416c.181.777.375,1.571.576,2.357a.918.918,0,0,1-.661,1.117A.9.9,0,0,1,1393.4,2103.159Zm-1.107-4.767a.918.918,0,0,1-.9-.731c-.167-.808-.327-1.624-.473-2.424a.918.918,0,1,1,1.806-.329c.144.786.3,1.587.464,2.38a.919.919,0,0,1-.9,1.1Zm-.878-4.816a.917.917,0,0,1-.905-.775c-.128-.813-.246-1.636-.352-2.447a.918.918,0,0,1,1.82-.238c.1.8.22,1.6.345,2.4a.918.918,0,0,1-.764,1.049A.955.955,0,0,1,1391.419,2093.576Zm-.634-4.856a.918.918,0,0,1-.912-.823c-.085-.821-.16-1.65-.222-2.465a.918.918,0,0,1,1.83-.14c.061.8.135,1.611.218,2.416a.917.917,0,0,1-.818,1.007A.791.791,0,0,1,1390.785,2088.719Zm-.373-4.886a.918.918,0,0,1-.916-.873c-.04-.825-.069-1.658-.086-2.477a.918.918,0,0,1,1.835-.038c.017.8.045,1.618.084,2.425a.918.918,0,0,1-.872.961Zm-.1-4.9h-.008a.918.918,0,0,1-.91-.925c.007-.825.025-1.658.056-2.474a.918.918,0,1,1,1.834.068c-.03.8-.048,1.613-.054,2.421A.918.918,0,0,1,1390.312,2078.93Zm.183-4.9-.062,0a.918.918,0,0,1-.854-.977c.055-.823.123-1.654.2-2.472a.918.918,0,1,1,1.827.177c-.077.8-.144,1.612-.2,2.417A.918.918,0,0,1,1390.495,2074.034Zm.472-4.875a1.064,1.064,0,0,1-.117-.007.918.918,0,0,1-.794-1.026c.1-.815.222-1.639.35-2.449a.918.918,0,1,1,1.813.286c-.125.792-.24,1.6-.342,2.395A.918.918,0,0,1,1390.967,2069.159Zm.764-4.832a.936.936,0,0,1-.172-.016.918.918,0,0,1-.731-1.073c.153-.807.32-1.623.5-2.424a.918.918,0,0,1,1.792.4c-.173.784-.336,1.581-.486,2.37A.918.918,0,0,1,1391.731,2064.327Zm1.055-4.777a.919.919,0,0,1-.891-1.143c.2-.793.416-1.6.642-2.389a.918.918,0,0,1,1.765.5c-.221.774-.432,1.561-.628,2.336A.919.919,0,0,1,1392.786,2059.55Zm1.339-4.705a.933.933,0,0,1-.278-.043.918.918,0,0,1-.6-1.152c.247-.779.51-1.568.783-2.346a.918.918,0,1,1,1.732.606c-.266.761-.524,1.533-.766,2.295A.918.918,0,0,1,1394.125,2054.845Zm1.616-4.618a.917.917,0,0,1-.857-1.246c.292-.763.6-1.535.918-2.3a.918.918,0,1,1,1.694.706c-.31.745-.612,1.5-.9,2.247A.918.918,0,0,1,1395.742,2050.227Zm1.88-4.516a.918.918,0,0,1-.836-1.294c.336-.745.687-1.5,1.045-2.24a.918.918,0,1,1,1.652.8c-.351.725-.7,1.463-1.023,2.194A.919.919,0,0,1,1397.622,2045.711Zm2.128-4.405a.918.918,0,0,1-.814-1.339c.375-.724.766-1.458,1.164-2.179a.918.918,0,1,1,1.608.886c-.39.708-.774,1.427-1.141,2.136A.918.918,0,0,1,1399.75,2041.306Zm2.36-4.285a.918.918,0,0,1-.791-1.381c.41-.7.838-1.413,1.274-2.115a.918.918,0,1,1,1.56.966c-.427.689-.847,1.388-1.25,2.076A.918.918,0,0,1,1402.11,2037.021Zm2.574-4.161a.918.918,0,0,1-.767-1.42c.445-.681.908-1.371,1.374-2.05a.918.918,0,1,1,1.512,1.04c-.458.667-.913,1.345-1.35,2.014A.917.917,0,0,1,1404.684,2032.86Zm2.771-4.032a.918.918,0,0,1-.743-1.455c.477-.662.971-1.329,1.466-1.984a.918.918,0,1,1,1.464,1.106c-.487.645-.972,1.3-1.442,1.951A.916.916,0,0,1,1407.456,2028.828Zm2.95-3.9a.918.918,0,0,1-.72-1.487c.5-.635,1.023-1.281,1.549-1.918a.918.918,0,1,1,1.416,1.168c-.518.628-1.031,1.263-1.525,1.889A.916.916,0,0,1,1410.406,2024.925Zm3.112-3.775a.918.918,0,0,1-.7-1.516q.8-.927,1.624-1.854a.918.918,0,0,1,1.369,1.223q-.816.913-1.6,1.826A.916.916,0,0,1,1413.518,2021.15Zm3.26-3.649a.918.918,0,0,1-.672-1.542q.831-.9,1.692-1.791a.918.918,0,1,1,1.322,1.273q-.849.883-1.669,1.766A.915.915,0,0,1,1416.778,2017.5Zm3.392-3.526a.917.917,0,0,1-.65-1.565q.863-.865,1.753-1.729a.918.918,0,0,1,1.278,1.317q-.879.853-1.731,1.708A.915.915,0,0,1,1420.17,2013.975Zm3.512-3.407a.918.918,0,0,1-.628-1.587q.89-.836,1.808-1.67a.918.918,0,0,1,1.235,1.358q-.906.825-1.786,1.65A.913.913,0,0,1,1423.682,2010.568Zm3.62-3.293a.918.918,0,0,1-.607-1.606q.915-.807,1.857-1.614a.918.918,0,0,1,1.194,1.394q-.931.8-1.837,1.6A.913.913,0,0,1,1427.3,2007.275Zm3.717-3.183a.917.917,0,0,1-.587-1.623q.938-.78,1.9-1.559a.918.918,0,1,1,1.154,1.427q-.953.771-1.882,1.543A.915.915,0,0,1,1431.02,2004.092Zm3.788-3.1a.918.918,0,0,1-.59-1.621c.618-.519,1.233-1.051,1.827-1.583a.918.918,0,0,1,1.224,1.369c-.609.544-1.239,1.09-1.872,1.621A.917.917,0,0,1,1434.808,2000.995Zm3.646-3.262a.918.918,0,0,1-.634-1.582c.582-.555,1.16-1.127,1.719-1.7a.918.918,0,0,1,1.312,1.284c-.573.585-1.166,1.171-1.763,1.741A.913.913,0,0,1,1438.453,1997.733Zm3.421-3.5a.918.918,0,0,1-.677-1.537c.543-.594,1.08-1.2,1.6-1.811a.918.918,0,0,1,1.4,1.191c-.531.623-1.083,1.248-1.64,1.858A.914.914,0,0,1,1441.875,1994.237Zm3.173-3.724a.918.918,0,0,1-.719-1.488c.5-.628.991-1.273,1.466-1.918a.918.918,0,0,1,1.478,1.088c-.488.662-.994,1.325-1.506,1.97A.916.916,0,0,1,1445.047,1990.513Zm2.9-3.94a.917.917,0,0,1-.757-1.434c.451-.662.9-1.341,1.323-2.018a.918.918,0,1,1,1.553.978c-.438.7-.9,1.394-1.359,2.074A.917.917,0,0,1,1447.947,1986.573Zm2.606-4.139a.918.918,0,0,1-.793-1.378c.4-.691.795-1.4,1.171-2.109a.918.918,0,1,1,1.62.862c-.387.728-.792,1.458-1.2,2.168A.918.918,0,0,1,1450.553,1982.434Zm2.3-4.315a.918.918,0,0,1-.825-1.319c.35-.722.691-1.458,1.013-2.187a.918.918,0,0,1,1.679.742c-.331.749-.681,1.5-1.041,2.247A.918.918,0,0,1,1452.848,1978.118Zm1.974-4.47a.918.918,0,0,1-.853-1.258c.3-.742.583-1.5.853-2.256a.918.918,0,0,1,1.728.618c-.278.775-.572,1.555-.876,2.317A.919.919,0,0,1,1454.823,1973.648Zm1.648-4.6a.909.909,0,0,1-.279-.044.918.918,0,0,1-.6-1.153c.243-.763.476-1.541.692-2.313a.918.918,0,1,1,1.767.5c-.222.792-.461,1.59-.71,2.374A.918.918,0,0,1,1456.47,1969.046Zm1.321-4.709a.919.919,0,0,1-.892-1.135c.189-.777.368-1.569.532-2.356a.918.918,0,1,1,1.8.374c-.168.807-.352,1.62-.546,2.417A.918.918,0,0,1,1457.792,1964.336Zm1-4.791a.918.918,0,0,1-.905-1.075c.137-.789.264-1.593.376-2.388a.918.918,0,1,1,1.817.255c-.114.815-.244,1.639-.384,2.448A.918.918,0,0,1,1458.79,1959.545Zm.682-4.847a.863.863,0,0,1-.1-.006.918.918,0,0,1-.814-1.011c.086-.793.161-1.6.223-2.41a.918.918,0,1,1,1.83.142c-.063.824-.14,1.654-.228,2.466A.918.918,0,0,1,1459.472,1954.7Zm.376-4.882h-.043a.917.917,0,0,1-.874-.959c.037-.8.063-1.612.077-2.42a.918.918,0,1,1,1.835.031c-.014.827-.04,1.659-.079,2.475A.917.917,0,0,1,1459.849,1949.816Zm.084-4.9a.918.918,0,0,1-.918-.907c-.01-.8-.031-1.617-.063-2.422a.918.918,0,1,1,1.834-.073c.033.821.054,1.654.064,2.473a.918.918,0,0,1-.907.928Zm-.2-4.9a.918.918,0,0,1-.915-.856c-.054-.8-.12-1.609-.2-2.414a.918.918,0,0,1,1.827-.172c.078.822.145,1.651.2,2.464a.918.918,0,0,1-.854.977Zm-.46-4.872a.918.918,0,0,1-.91-.807c-.1-.8-.2-1.606-.322-2.4a.918.918,0,1,1,1.816-.267c.119.812.229,1.635.328,2.448a.917.917,0,0,1-.8,1.021A.908.908,0,0,1,1459.277,1935.151Zm-.71-4.842a.919.919,0,0,1-.9-.762c-.135-.786-.283-1.588-.441-2.384a.918.918,0,0,1,1.8-.355c.16.811.311,1.628.449,2.428a.917.917,0,0,1-.749,1.06A.927.927,0,0,1,1458.567,1930.309Zm-.948-4.8a.918.918,0,0,1-.895-.719c-.175-.786-.361-1.581-.554-2.362a.918.918,0,1,1,1.781-.44c.2.8.387,1.6.564,2.4a.918.918,0,0,1-.7,1.1A.94.94,0,0,1,1457.619,1925.508Zm-1.174-4.752a.917.917,0,0,1-.885-.678c-.21-.774-.433-1.56-.662-2.334a.918.918,0,1,1,1.76-.52c.233.788.459,1.587.673,2.375a.918.918,0,0,1-.646,1.126A.932.932,0,0,1,1456.445,1920.756Zm-1.39-4.7a.918.918,0,0,1-.874-.638c-.245-.765-.5-1.543-.767-2.312a.918.918,0,0,1,1.736-.6c.269.782.531,1.573.78,2.35a.919.919,0,0,1-.874,1.2Zm-1.6-4.644a.918.918,0,0,1-.861-.6c-.279-.76-.571-1.525-.865-2.276a.918.918,0,0,1,1.709-.67c.3.763.595,1.541.879,2.313a.918.918,0,0,1-.861,1.235Zm-1.792-4.569a.918.918,0,0,1-.848-.565c-.31-.744-.632-1.5-.959-2.238a.918.918,0,1,1,1.68-.74c.331.752.659,1.517.974,2.272a.917.917,0,0,1-.494,1.2A.907.907,0,0,1,1451.667,1906.841Zm-1.978-4.489a.917.917,0,0,1-.833-.531c-.34-.731-.693-1.47-1.048-2.2a.918.918,0,0,1,1.649-.807c.36.736.718,1.487,1.064,2.229a.918.918,0,0,1-.832,1.3Zm-212.714-3.754a.918.918,0,0,1-.788-1.386c.019-.031.469-.787,1.385-2.116a.918.918,0,0,1,1.512,1.041c-.876,1.272-1.314,2.005-1.318,2.013A.917.917,0,0,1,1236.976,1898.6Zm210.558-.648a.917.917,0,0,1-.817-.5q-.557-1.081-1.135-2.151a.918.918,0,1,1,1.615-.872q.586,1.085,1.151,2.183a.918.918,0,0,1-.815,1.338Zm-207.78-3.416a.917.917,0,0,1-.738-1.462c.478-.648.981-1.312,1.5-1.975a.918.918,0,0,1,1.448,1.128c-.506.649-1,1.3-1.467,1.935A.916.916,0,0,1,1239.754,1894.534Zm205.452-.894a.918.918,0,0,1-.8-.466q-.6-1.058-1.217-2.1a.918.918,0,1,1,1.579-.935q.628,1.061,1.236,2.134a.918.918,0,0,1-.8,1.37Zm-202.44-2.977a.918.918,0,0,1-.71-1.5c.512-.626,1.046-1.263,1.587-1.895a.918.918,0,0,1,1.394,1.194c-.532.621-1.057,1.248-1.561,1.863A.915.915,0,0,1,1242.766,1890.664Zm199.947-1.235a.917.917,0,0,1-.781-.435q-.639-1.032-1.3-2.052a.918.918,0,1,1,1.541-1q.669,1.034,1.318,2.082a.918.918,0,0,1-.78,1.4Zm-196.759-2.487a.918.918,0,0,1-.684-1.53c.546-.61,1.106-1.223,1.665-1.823a.918.918,0,0,1,1.343,1.251c-.551.591-1.1,1.195-1.639,1.8A.916.916,0,0,1,1245.954,1886.941Zm194.1-1.62a.918.918,0,0,1-.762-.4q-.678-1.006-1.376-2a.918.918,0,1,1,1.5-1.056q.708,1.006,1.4,2.028a.918.918,0,0,1-.76,1.431Zm-190.764-1.964a.918.918,0,0,1-.659-1.557q.838-.863,1.735-1.754a.918.918,0,1,1,1.292,1.3q-.884.877-1.71,1.729A.914.914,0,0,1,1249.293,1883.357Zm187.953-2.032a.917.917,0,0,1-.741-.375q-.718-.978-1.453-1.94a.918.918,0,1,1,1.458-1.115q.747.976,1.475,1.969a.917.917,0,0,1-.739,1.46Zm-184.474-1.416a.918.918,0,0,1-.634-1.582q.875-.835,1.8-1.686a.918.918,0,1,1,1.241,1.352q-.912.838-1.774,1.662A.916.916,0,0,1,1252.771,1879.908Zm181.508-2.463a.915.915,0,0,1-.718-.346c-.5-.628-1.015-1.26-1.528-1.878a.918.918,0,0,1,1.412-1.172c.521.627,1.043,1.269,1.551,1.907a.918.918,0,0,1-.717,1.49Zm-177.9-.85a.918.918,0,0,1-.608-1.605q.908-.8,1.862-1.616a.918.918,0,1,1,1.19,1.4q-.94.8-1.836,1.594A.913.913,0,0,1,1256.377,1876.6Zm174.786-2.9a.916.916,0,0,1-.694-.317c-.527-.609-1.068-1.221-1.608-1.821a.918.918,0,1,1,1.363-1.229c.549.609,1.1,1.231,1.633,1.849a.918.918,0,0,1-.693,1.518Zm-171.059-.273a.918.918,0,0,1-.583-1.627q.94-.771,1.92-1.546a.918.918,0,1,1,1.138,1.44q-.967.764-1.893,1.525A.913.913,0,0,1,1260.1,1873.42Zm3.84-3.036a.918.918,0,0,1-.557-1.648q.968-.738,1.974-1.475a.918.918,0,0,1,1.085,1.48q-.992.728-1.948,1.455A.914.914,0,0,1,1263.944,1870.383Zm163.939-.325a.914.914,0,0,1-.668-.289c-.553-.588-1.12-1.177-1.683-1.75a.918.918,0,1,1,1.31-1.286c.572.583,1.147,1.181,1.71,1.778a.918.918,0,0,1-.668,1.547Zm-159.991-2.57a.918.918,0,0,1-.53-1.667q1-.7,2.026-1.4a.918.918,0,1,1,1.031,1.519q-1.016.69-2,1.383A.911.911,0,0,1,1267.892,1867.489Zm156.561-.923a.914.914,0,0,1-.641-.26c-.577-.562-1.168-1.126-1.757-1.675a.918.918,0,1,1,1.251-1.342c.6.559,1.2,1.131,1.786,1.7a.918.918,0,0,1-.64,1.575Zm-152.511-1.827a.918.918,0,0,1-.5-1.686q1.022-.668,2.074-1.329a.918.918,0,0,1,.977,1.554q-1.04.653-2.047,1.311A.913.913,0,0,1,1271.942,1864.739Zm148.931-1.511a.914.914,0,0,1-.61-.233c-.607-.541-1.222-1.077-1.83-1.593a.918.918,0,1,1,1.189-1.4c.618.525,1.245,1.071,1.862,1.621a.918.918,0,0,1-.611,1.6Zm-144.786-1.092a.918.918,0,0,1-.475-1.7q1.045-.631,2.12-1.254a.918.918,0,1,1,.921,1.588q-1.06.615-2.093,1.237A.915.915,0,0,1,1276.087,1862.136Zm141.057-2.078a.913.913,0,0,1-.577-.2c-.626-.507-1.266-1.014-1.9-1.5a.918.918,0,1,1,1.121-1.454c.648.5,1.3,1.016,1.938,1.532a.918.918,0,0,1-.578,1.631Zm-136.823-.375a.918.918,0,0,1-.447-1.72q1.068-.594,2.163-1.178a.918.918,0,1,1,.864,1.619q-1.082.576-2.135,1.163A.915.915,0,0,1,1280.321,1859.683Zm4.318-2.3a.918.918,0,0,1-.418-1.735q1.088-.556,2.2-1.1a.918.918,0,0,1,.806,1.649q-1.1.538-2.175,1.087A.908.908,0,0,1,1284.639,1857.38Zm128.627-.311a.913.913,0,0,1-.542-.177c-.652-.478-1.317-.951-1.974-1.406a.918.918,0,1,1,1.046-1.508c.67.464,1.347.947,2.012,1.434a.918.918,0,0,1-.543,1.658Zm-124.231-1.838a.918.918,0,0,1-.389-1.75q1.107-.517,2.24-1.023a.918.918,0,1,1,.748,1.676q-1.118.5-2.211,1.01A.917.917,0,0,1,1289.036,1855.232Zm120.208-.95a.915.915,0,0,1-.5-.15c-.677-.443-1.365-.88-2.044-1.3a.918.918,0,1,1,.964-1.562c.694.428,1.4.874,2.086,1.326a.918.918,0,0,1-.5,1.686Zm-115.739-1.045a.918.918,0,0,1-.36-1.762q1.125-.479,2.274-.945a.918.918,0,1,1,.69,1.7q-1.134.461-2.245.934A.926.926,0,0,1,1293.5,1853.237Zm111.573-1.523a.916.916,0,0,1-.458-.124c-.7-.4-1.408-.8-2.113-1.182a.918.918,0,0,1,.873-1.615c.72.389,1.446.8,2.159,1.208a.918.918,0,0,1-.461,1.712Zm-107.039-.316a.918.918,0,0,1-.331-1.774q1.141-.44,2.3-.866a.918.918,0,0,1,.632,1.723q-1.149.421-2.276.856A.908.908,0,0,1,1298.038,1851.4Zm4.594-1.683a.918.918,0,0,1-.3-1.785q1.154-.4,2.332-.788a.918.918,0,1,1,.573,1.744q-1.163.382-2.3.778A.912.912,0,0,1,1302.633,1849.714Zm98.14-.327a.913.913,0,0,1-.411-.1c-.722-.363-1.455-.717-2.177-1.052a.918.918,0,1,1,.772-1.665c.74.343,1.489.706,2.229,1.077a.918.918,0,0,1-.412,1.738Zm-93.492-1.2a.918.918,0,0,1-.272-1.795q1.168-.362,2.357-.71a.918.918,0,0,1,.515,1.762q-1.175.344-2.328.7A.929.929,0,0,1,1307.281,1848.186Zm89.053-.859a.916.916,0,0,1-.359-.073c-.74-.315-1.494-.621-2.238-.91a.918.918,0,1,1,.662-1.711c.764.3,1.536.61,2.295.933a.918.918,0,0,1-.36,1.762Zm-84.357-.514a.918.918,0,0,1-.242-1.8q1.179-.323,2.379-.632a.918.918,0,0,1,.457,1.778q-1.184.3-2.35.625A.912.912,0,0,1,1311.977,1846.814Zm4.738-1.218a.918.918,0,0,1-.213-1.81q1.189-.286,2.4-.555a.918.918,0,0,1,.4,1.792q-1.194.267-2.369.548A.907.907,0,0,1,1316.715,1845.6Zm75.056-.033a.915.915,0,0,1-.3-.051c-.761-.265-1.533-.519-2.294-.753a.918.918,0,1,1,.542-1.754c.781.241,1.574.5,2.355.773a.918.918,0,0,1-.3,1.785Zm-70.281-1.033a.918.918,0,0,1-.185-1.817q1.2-.247,2.413-.479a.918.918,0,0,1,.344,1.8q-1.2.229-2.386.473A.908.908,0,0,1,1321.49,1844.529Zm65.607-.408a.917.917,0,0,1-.239-.032c-.78-.209-1.567-.405-2.34-.582a.918.918,0,0,1,.409-1.789c.8.182,1.606.383,2.408.6a.918.918,0,0,1-.238,1.8Zm-60.8-.507a.918.918,0,0,1-.157-1.822q1.2-.21,2.426-.4a.918.918,0,1,1,.289,1.813q-1.208.192-2.4.4A.924.924,0,0,1,1326.3,1843.613Zm56.033-.581a.9.9,0,0,1-.17-.016c-.792-.148-1.592-.282-2.376-.4a.918.918,0,0,1,.265-1.816c.808.118,1.633.255,2.449.409a.918.918,0,0,1-.168,1.82Zm-51.2-.186a.918.918,0,0,1-.129-1.826q1.21-.174,2.438-.331a.918.918,0,1,1,.233,1.82q-1.214.156-2.41.327A.96.96,0,0,1,1331.129,1842.846Zm46.362-.521a.868.868,0,0,1-.1-.006q-1.217-.132-2.423-.249a.918.918,0,0,1,.177-1.827q1.215.118,2.444.251a.918.918,0,0,1-.1,1.83Zm-41.509-.1a.918.918,0,0,1-.1-1.83q1.215-.138,2.446-.259a.918.918,0,0,1,.18,1.827q-1.218.12-2.419.256A1.021,1.021,0,0,1,1335.982,1842.224Zm36.639-.371c-.026,0-.052,0-.079,0q-1.22-.1-2.428-.192a.918.918,0,1,1,.134-1.831q1.219.089,2.45.194a.918.918,0,0,1-.077,1.832Zm-31.77-.109a.918.918,0,0,1-.076-1.832q1.218-.1,2.452-.188a.918.918,0,0,1,.128,1.831q-1.221.085-2.426.187C1340.9,1841.743,1340.877,1841.744,1340.851,1841.744Zm26.89-.249-.057,0q-1.222-.075-2.432-.134a.918.918,0,0,1,.09-1.833q1.22.06,2.454.135a.918.918,0,0,1-.055,1.834Zm-22.009-.091a.918.918,0,0,1-.05-1.834q1.22-.068,2.457-.119a.918.918,0,1,1,.077,1.833q-1.224.051-2.431.119Zm17.122-.148h-.034q-1.224-.045-2.434-.074a.918.918,0,0,1,.044-1.835q1.222.029,2.457.075a.918.918,0,0,1-.033,1.835Zm-12.233-.057a.918.918,0,0,1-.026-1.835q1.223-.034,2.459-.053h.014a.918.918,0,0,1,.013,1.835q-1.224.018-2.434.052Zm7.341-.062h-.011q-1.064-.012-2.118-.011h-.317a.918.918,0,0,1,0-1.835h.319q1.065,0,2.139.012a.918.918,0,0,1-.01,1.835Z" transform="translate(-1236.059 -1839.29)" fill="#699ff0"/>
      </g>
      <g id="Group_189" data-name="Group 189" transform="translate(741.141 1901.543)">
        <g id="Group_172" data-name="Group 172" transform="translate(0 91.678)">
          <path id="Path_12766" data-name="Path 12766" d="M1128.839,2393.036s-.563.6-1.611,1.732c-3.829,4.15-14.224,15.433-25.668,28.409-2.7,3.062-5.48,6.245-8.26,9.427-4.15,4.8-8.22,9.591-12.008,14.226l-.04.04c-1.169,1.37-2.257,2.7-3.344,4.029-2.257,2.782-4.353,5.44-6.286,7.939-5.8,7.575-9.872,13.7-10.638,16.8-4.634,19.382,4.392,73.942,6.729,87.279H941.1c3.828-27.723,9.147-66.889,9.832-72.853,1.048-9.389-31.713-49.684-32.277-79.1-.524-29.375,18.9-50.409,21.961-79.34,1.491-13.62-.2-31.35-2.378-46.46-1.128-8.019-2.458-15.192-3.506-20.632a7.555,7.555,0,0,1,2.015-6.81,6.625,6.625,0,0,1,1.451-1.168,7.424,7.424,0,0,1,7.132-.563c7.253,3.1,15.312,11.323,17.408,31.833,0,0,6.084,3.827,15.916,10.073,3.989,2.5,8.583,5.4,13.661,8.624,3.908,2.457,8.1,5.117,12.491,7.9.282.161.565.363.847.524,1.773,1.127,3.506,2.255,5.359,3.424h.04c.645.4,1.29.846,1.975,1.25q1.753,1.148,3.626,2.3a4.824,4.824,0,0,0,.766.443c7.978,5.077,16.319,10.4,24.741,15.756h.04c1.37.8,2.74,1.692,4.11,2.579,1.048.685,2.136,1.329,3.224,2.015,1.33.886,2.7,1.732,4.07,2.578h.04c9.55,6.044,18.9,12.008,27.642,17.529,1.37.887,2.741,1.732,4.07,2.579,1.089.686,2.136,1.371,3.184,2.015,1.41.887,2.7,1.732,4.029,2.62h.04c16.682,10.517,29.577,18.737,34.291,21.759C1128.154,2392.592,1128.839,2393,1128.839,2393.036Z" transform="translate(-918.65 -2255.337)" fill="#ffb27d"/>
          <path id="Path_12767" data-name="Path 12767" d="M970.185,2279.118a6.573,6.573,0,0,1-5.562,6.935l-.878.13c-1.149-7.983-2.46-15.179-3.508-20.621-.518-2.66-1.312-5.216-1.087-7.939,5.51-2.7,7.629,3.821,8.306,6.465A83.937,83.937,0,0,1,970.185,2279.118Z" transform="translate(-944.141 -2256.373)" fill="#ffc197"/>
        </g>
        <path id="Path_12768" data-name="Path 12768" d="M1206.875,2690.615c-4.151,4.8-8.22,9.591-12.009,14.226l-.04.04c-1.169,1.37-2.256,2.7-3.344,4.029-2.257,2.781-4.353,5.44-6.286,7.939-5.8,7.575-9.872,13.7-10.638,16.8-4.634,19.382,4.392,73.942,6.73,87.279h-82.364c15.272-22.766,17.246-62.86,17.367-81.275.04-4.635,1.532-10.2,3.949-16.077,4.594-11.365,12.491-24.1,19.745-34.615,6.689-9.751,12.854-17.568,15.353-20.671v-.04c.806-.927,1.208-1.451,1.208-1.451l45.533-1.934h.04l.6,3.224.483,2.74,2.1,11.364Z" transform="translate(-1032.226 -2421.67)" fill="#e2915a" opacity="0.3"/>
        <g id="Group_187" data-name="Group 187" transform="translate(33.727 0)">
          <g id="Group_176" data-name="Group 176">
            <path id="Path_12769" data-name="Path 12769" d="M1182.858,2299.756l-136.275,14.083a7.833,7.833,0,0,1-8.571-6.965l-28.164-272.518a7.832,7.832,0,0,1,6.965-8.571l136.275-14.084a7.832,7.832,0,0,1,8.571,6.966l28.164,272.518A7.832,7.832,0,0,1,1182.858,2299.756Z" transform="translate(-1009.807 -2010.138)" fill="#2db2ee"/>
            <path id="Path_12770" data-name="Path 12770" d="M1222.632,2295.646l-136.275,14.083a7.833,7.833,0,0,1-8.571-6.966l-28.164-272.518a7.832,7.832,0,0,1,6.965-8.571l136.275-14.084a7.833,7.833,0,0,1,8.571,6.966l28.164,272.519A7.834,7.834,0,0,1,1222.632,2295.646Z" transform="translate(-1034.865 -2007.549)" fill="#30bfff"/>
            <g id="Group_173" data-name="Group 173" transform="translate(65.377 15.679)">
              <path id="Path_12771" data-name="Path 12771" d="M1248,2051.313a1.549,1.549,0,0,0-1.695-1.377l-39.463,4.079a1.543,1.543,0,1,0,.317,3.071l39.463-4.078A1.548,1.548,0,0,0,1248,2051.313Z" transform="translate(-1198.445 -2049.928)" fill="#fff" opacity="0.4"/>
              <path id="Path_12772" data-name="Path 12772" d="M1187.9,2062.918a1.543,1.543,0,1,0,1.694,1.376A1.548,1.548,0,0,0,1187.9,2062.918Z" transform="translate(-1186.51 -2058.107)" fill="#fff" opacity="0.4"/>
            </g>
            <path id="Path_12773" data-name="Path 12773" d="M1326.729,2743.736a9.955,9.955,0,1,0-8.879,10.926A9.955,9.955,0,0,0,1326.729,2743.736Z" transform="translate(-1196.962 -2465.731)" fill="#fff" opacity="0.4"/>
            <rect id="Rectangle_925" data-name="Rectangle 925" width="126.89" height="234.232" transform="translate(28.952 36.464) rotate(-5.9)" fill="#fff"/>
            <rect id="Rectangle_926" data-name="Rectangle 926" width="126.89" height="27.191" transform="translate(50.237 242.425) rotate(-5.9)" fill="#ebf3fa"/>
            <g id="Group_174" data-name="Group 174" transform="translate(89.362 238.388)">
              <path id="Path_12774" data-name="Path 12774" d="M1252.854,2661.346l65.141-6.731a1.376,1.376,0,0,0-.283-2.738l-65.141,6.732a1.381,1.381,0,0,0-1.228,1.511h0A1.38,1.38,0,0,0,1252.854,2661.346Z" transform="translate(-1251.336 -2651.869)" fill="#30bfff"/>
              <path id="Path_12775" data-name="Path 12775" d="M1320.9,2669.317a1.381,1.381,0,0,0-1.51-1.228l-65.141,6.732a1.377,1.377,0,1,0,.283,2.739l65.14-6.732A1.38,1.38,0,0,0,1320.9,2669.317Z" transform="translate(-1252.392 -2662.083)" fill="#30bfff"/>
            </g>
            <path id="Path_12776" data-name="Path 12776" d="M1196.2,2647.269a7.864,7.864,0,0,0-.685-2.579,9.173,9.173,0,0,0-9.509-5.722,9.291,9.291,0,0,0-8.18,7.535,10.118,10.118,0,0,0-.121,2.7c.524,5.076,10.96,15.472,10.96,15.472S1196.728,2652.385,1196.2,2647.269Zm-8.824,5.2a4.339,4.339,0,0,1-4.754-3.868,4.549,4.549,0,0,1,.564-2.659,4.394,4.394,0,0,1,3.3-2.136,4.218,4.218,0,0,1,3.666,1.41,4.326,4.326,0,0,1-2.78,7.253Z" transform="translate(-1115.562 -2405.32)" fill="#30bfff"/>
            <g id="Group_175" data-name="Group 175" transform="translate(46.796 59.341)">
              <rect id="Rectangle_927" data-name="Rectangle 927" width="73.164" height="60.328" transform="matrix(-0.995, 0.103, -0.103, -0.995, 78.978, 62.579)" fill="#d3671e"/>
              <path id="Path_12802" data-name="Path 12802" d="M0,0H61.586V60.328H0Z" transform="matrix(0.995, -0.103, 0.103, 0.995, 36.388, 6.331)" fill="#f1a34f"/>
              <path id="Path_12777" data-name="Path 12777" d="M1300.528,2223.509l1.573,15.219-61.26,6.331-6.2-60.008Z" transform="translate(-1198.251 -2178.719)" fill="#d86713" opacity="0.4"/>
              <path id="Path_12778" data-name="Path 12778" d="M1147.936,2304.758l11.532-1.192-1.351-3.14.776-2.424-11.532,1.192Z" transform="translate(-1143.264 -2249.88)" fill="#f1a34f"/>
              <path id="Path_12779" data-name="Path 12779" d="M1141.184,2239.432l11.532-1.192-1.351-3.14.776-2.424-11.532,1.192Z" transform="translate(-1139.011 -2208.724)" fill="#f1a34f"/>
              <path id="Path_12780" data-name="Path 12780" d="M1385.358,2214.2l-11.532,1.192.681-3.35-1.255-2.213,11.532-1.192Z" transform="translate(-1285.579 -2193.577)" fill="#d86713" opacity="0.4"/>
            </g>
          </g>
          <g id="Group_186" data-name="Group 186" transform="translate(52.066 138.297)">
            <g id="Group_178" data-name="Group 178">
              <g id="Group_177" data-name="Group 177" transform="translate(0 7.029)">
                <path id="Path_12781" data-name="Path 12781" d="M1162.426,2401.542a8.54,8.54,0,0,0-1.209-.644,8.23,8.23,0,0,0-3.747-.525,7.739,7.739,0,0,0-6.569,5.4,7.248,7.248,0,0,0-.322,3.1,7.762,7.762,0,0,0,8.5,6.89,7.127,7.127,0,0,0,4.433-2.055,7.5,7.5,0,0,0,2.457-6.448A7.665,7.665,0,0,0,1162.426,2401.542Zm.322,11.726a6.754,6.754,0,0,1-3.747,1.612,6.834,6.834,0,0,1-7.495-6.085,6.517,6.517,0,0,1,.242-2.5,6.713,6.713,0,0,1,5.843-5.037,6.028,6.028,0,0,1,3.183.483,5.179,5.179,0,0,1,1.33.684,6.826,6.826,0,0,1,.644,10.84Z" transform="translate(-1150.533 -2400.339)" fill="#30bfff"/>
              </g>
              <path id="Path_12782" data-name="Path 12782" d="M1159.386,2392.592l4.9,7.625,6.567-18.876-7.14,13.324Z" transform="translate(-1156.111 -2381.341)" fill="#30bfff"/>
            </g>
            <g id="Group_180" data-name="Group 180" transform="translate(2.945 28.373)">
              <g id="Group_179" data-name="Group 179" transform="translate(0 7.023)">
                <path id="Path_12783" data-name="Path 12783" d="M1173.929,2483.977a7.743,7.743,0,0,0-3.546-5.762,11.663,11.663,0,0,0-1.209-.645,8.323,8.323,0,0,0-3.747-.523,7.739,7.739,0,1,0,8.5,6.931Zm-7.012,7.576a6.825,6.825,0,1,1-1.369-13.581,6.453,6.453,0,0,1,3.182.444,5.116,5.116,0,0,1,1.33.685,6.774,6.774,0,0,1,2.982,4.956A6.887,6.887,0,0,1,1166.917,2491.553Z" transform="translate(-1158.494 -2477.012)" fill="#30bfff"/>
              </g>
              <path id="Path_12784" data-name="Path 12784" d="M1167.311,2469.28l4.9,7.625,6.567-18.875-7.141,13.324Z" transform="translate(-1164.049 -2458.029)" fill="#30bfff"/>
            </g>
            <g id="Group_182" data-name="Group 182" transform="translate(5.887 63.757)">
              <g id="Group_181" data-name="Group 181">
                <path id="Path_12785" data-name="Path 12785" d="M1181.879,2560.638a7.736,7.736,0,1,0-6.891,8.5A7.765,7.765,0,0,0,1181.879,2560.638Zm-7.011,7.576a6.827,6.827,0,1,1,6.085-7.5A6.828,6.828,0,0,1,1174.867,2568.214Z" transform="translate(-1166.444 -2553.666)" fill="#30bfff"/>
              </g>
            </g>
            <g id="Group_183" data-name="Group 183" transform="translate(25.212 1.063)">
              <path id="Path_12786" data-name="Path 12786" d="M1293.065,2387.2l-72.87,7.531a1.353,1.353,0,0,1-1.48-1.2l-.031-.3a1.353,1.353,0,0,1,1.2-1.48l72.869-7.531a1.354,1.354,0,0,1,1.481,1.2l.03.3A1.352,1.352,0,0,1,1293.065,2387.2Z" transform="translate(-1218.677 -2384.214)" fill="#30bfff"/>
              <path id="Path_12787" data-name="Path 12787" d="M1294.547,2401.542l-72.869,7.531a1.353,1.353,0,0,1-1.481-1.2l-.031-.3a1.355,1.355,0,0,1,1.2-1.481l72.869-7.531a1.354,1.354,0,0,1,1.481,1.2l.031.3A1.353,1.353,0,0,1,1294.547,2401.542Z" transform="translate(-1219.611 -2393.249)" fill="#30bfff"/>
            </g>
            <g id="Group_184" data-name="Group 184" transform="translate(28.15 29.484)">
              <path id="Path_12788" data-name="Path 12788" d="M1301,2464.02l-72.869,7.531a1.353,1.353,0,0,1-1.481-1.2l-.031-.3a1.353,1.353,0,0,1,1.2-1.481l72.869-7.53a1.353,1.353,0,0,1,1.48,1.2l.031.3A1.353,1.353,0,0,1,1301,2464.02Z" transform="translate(-1226.616 -2461.032)" fill="#30bfff"/>
              <path id="Path_12789" data-name="Path 12789" d="M1302.486,2478.361l-72.869,7.531a1.354,1.354,0,0,1-1.481-1.2l-.03-.3a1.353,1.353,0,0,1,1.2-1.481l72.869-7.531a1.352,1.352,0,0,1,1.48,1.2l.031.3A1.353,1.353,0,0,1,1302.486,2478.361Z" transform="translate(-1227.55 -2470.067)" fill="#30bfff"/>
            </g>
            <g id="Group_185" data-name="Group 185" transform="translate(31.087 57.905)">
              <path id="Path_12790" data-name="Path 12790" d="M1308.943,2540.836l-72.87,7.531a1.354,1.354,0,0,1-1.48-1.2l-.031-.3a1.353,1.353,0,0,1,1.2-1.48l72.869-7.531a1.354,1.354,0,0,1,1.481,1.2l.03.3A1.352,1.352,0,0,1,1308.943,2540.836Z" transform="translate(-1234.555 -2537.849)" fill="#30bfff"/>
              <path id="Path_12791" data-name="Path 12791" d="M1310.425,2555.178l-72.869,7.531a1.353,1.353,0,0,1-1.48-1.2l-.031-.3a1.353,1.353,0,0,1,1.2-1.48l72.869-7.531a1.354,1.354,0,0,1,1.481,1.2l.031.3A1.353,1.353,0,0,1,1310.425,2555.178Z" transform="translate(-1235.489 -2546.884)" fill="#30bfff"/>
            </g>
          </g>
        </g>
        <g id="Group_188" data-name="Group 188" transform="translate(179.572 34.241)">
          <path id="Path_12792" data-name="Path 12792" d="M1470.531,2110.76s19.779-17.575,32.754-7.6-29.188,42.1-29.188,42.1Z" transform="translate(-1445.916 -2100.096)" fill="#ffb27d"/>
          <path id="Path_12793" data-name="Path 12793" d="M1451.878,2268.134l-22.985,12.714a13.886,13.886,0,0,1-18.817-5.413l-3.754-6.787a13.886,13.886,0,0,1,5.414-18.817l22.985-12.715a13.886,13.886,0,0,1,18.817,5.413l3.754,6.787A13.886,13.886,0,0,1,1451.878,2268.134Z" transform="translate(-1404.379 -2185.337)" fill="#ffb27d"/>
          <path id="Path_12794" data-name="Path 12794" d="M1462.636,2372.221l-22.985,12.715a13.886,13.886,0,0,1-18.817-5.413l-3.754-6.787a13.886,13.886,0,0,1,5.413-18.816l22.985-12.714a13.886,13.886,0,0,1,18.817,5.413l3.754,6.787A13.886,13.886,0,0,1,1462.636,2372.221Z" transform="translate(-1411.157 -2250.915)" fill="#ffb27d"/>
          <path id="Path_12795" data-name="Path 12795" d="M1473.1,2473.5l-22.985,12.715a13.887,13.887,0,0,1-18.818-5.413l-3.754-6.787a13.886,13.886,0,0,1,5.413-18.817l22.985-12.715a13.886,13.886,0,0,1,18.817,5.413l3.754,6.787A13.886,13.886,0,0,1,1473.1,2473.5Z" transform="translate(-1417.751 -2314.72)" fill="#ffb27d"/>
          <path id="Path_12796" data-name="Path 12796" d="M1407.028,2285.655a82.319,82.319,0,0,1,12.89-8.187,6.586,6.586,0,0,1,8.524,2.516l5.04,8.422a6.226,6.226,0,0,1-2.051,8.5,111.346,111.346,0,0,1-13.686,7.273,7.667,7.667,0,0,1-9.7-3.295l-3.06-5.422A7.593,7.593,0,0,1,1407.028,2285.655Z" transform="translate(-1404 -2211.428)" fill="#ffc197"/>
          <path id="Path_12797" data-name="Path 12797" d="M1418.082,2392.61a82.31,82.31,0,0,1,12.889-8.186,6.585,6.585,0,0,1,8.524,2.515l5.039,8.422a6.225,6.225,0,0,1-2.051,8.5,111.279,111.279,0,0,1-13.686,7.273,7.666,7.666,0,0,1-9.7-3.295l-3.059-5.422A7.593,7.593,0,0,1,1418.082,2392.61Z" transform="translate(-1410.965 -2278.811)" fill="#ffc197"/>
          <path id="Path_12798" data-name="Path 12798" d="M1430.411,2492.855a82.344,82.344,0,0,1,12.889-8.186,6.586,6.586,0,0,1,8.524,2.515l5.04,8.423a6.225,6.225,0,0,1-2.05,8.5,111.4,111.4,0,0,1-13.687,7.274,7.667,7.667,0,0,1-9.7-3.295l-3.06-5.422A7.592,7.592,0,0,1,1430.411,2492.855Z" transform="translate(-1418.732 -2341.967)" fill="#ffc197"/>
        </g>
      </g>
      <g id="Group_190" data-name="Group 190" transform="translate(1022.464 2179.874)">
        <path id="Path_12799" data-name="Path 12799" d="M1771.561,2812.386l53.135,8.362-34.987-24.592-1.908,7.7-12.982,2.158Z" transform="translate(-1737.321 -2782.714)" fill="#ca5f00"/>
        <path id="Path_12800" data-name="Path 12800" d="M1766.392,2817.853l-43.979-23.482-43.4-2.809Z" transform="translate(-1679.018 -2779.82)" fill="#f1a34f"/>
        <path id="Path_12801" data-name="Path 12801" d="M1820.612,2773.268l34.987,24.592-26.811-38.032Z" transform="translate(-1768.225 -2759.827)" fill="#f1a34f"/>
      </g>
    </g>
    <rect id="Rectangle_929" data-name="Rectangle 929" width="543.674" height="2.667" rx="1.334" transform="translate(214.326 855.833)" fill="#403b41"/>
  </g>
</svg>
