<svg xmlns="http://www.w3.org/2000/svg" width="94.056" height="94.006" viewBox="0 0 94.056 94.006">
  <g id="step-4" transform="translate(-384.825 -118.312)">
    <g id="Group_36" data-name="Group 36">
      <g id="Group_35" data-name="Group 35">
        <g id="Group_31" data-name="Group 31">
          <path id="Path_11991" data-name="Path 11991" d="M390.12,182.1A44.977,44.977,0,0,1,466.873,137.1" fill="none" stroke="#000" stroke-linecap="round" stroke-linejoin="round" stroke-width="4"/>
          <path id="Path_11992" data-name="Path 11992" d="M473.407,148.1a44.974,44.974,0,0,1-76.577,45.421" fill="none" stroke="#000" stroke-linecap="round" stroke-linejoin="round" stroke-width="4"/>
          <path id="Path_11993" data-name="Path 11993" d="M469.057,125.132l-1.383,12.828-12.831-1.378" fill="none" stroke="#000" stroke-linecap="round" stroke-linejoin="round" stroke-width="4"/>
          <path id="Path_11994" data-name="Path 11994" d="M408.868,193.776l-12.828-1.384-1.382,12.831" fill="none" stroke="#000" stroke-linecap="round" stroke-linejoin="round" stroke-width="4"/>
        </g>
        <g id="Group_34" data-name="Group 34">
          <g id="Group_33" data-name="Group 33">
            <g id="Group_32" data-name="Group 32">
              <path id="Path_11995" data-name="Path 11995" d="M408.971,170.2c-5.474-.01-5.481-3.708-5.481-5.487-.006-3.49,1.877-4.434,3.646-5.474l20.152-9.187.019-10.6c0-3.111,2.349-6.186,5.443-6.186s5.371,3.075,5.373,6.186l.027,10.585,20.129,9.255c1.769,1.048,3.654,1.991,3.66,5.48,0,1.786,0,5.477-5.477,5.474l-18.277-1.833.02,13.017,7.444,4.688c1.213.8,1.724,1,1.724,2.387-.051,2.128-.318,3.46-2.032,3.46l-12.625-3.274-12.62,3.274c-2.372,0-1.934-2.965-1.994-3.489a2.563,2.563,0,0,1,1.521-2.446l7.631-4.579.014-13.07Z" fill="none" stroke="#000" stroke-linecap="round" stroke-linejoin="round" stroke-width="4"/>
            </g>
            <line id="Line_14" data-name="Line 14" y2="20.032" transform="translate(438.15 150.034)" fill="none" stroke="#000" stroke-linecap="round" stroke-linejoin="round" stroke-width="4"/>
            <line id="Line_15" data-name="Line 15" x2="0.003" y2="18.327" transform="translate(427.284 150.051)" fill="none" stroke="#000" stroke-linecap="round" stroke-linejoin="round" stroke-width="4"/>
          </g>
        </g>
      </g>
    </g>
  </g>
</svg>
